<?xml version="1.0" encoding="UTF-8"?>
<svg width="800" height="1000" viewBox="0 0 800 1000" fill="none" xmlns="http://www.w3.org/2000/svg">
  <rect width="800" height="1000" fill="none" />

  <g stroke="#0b0f12" stroke-width="2" stroke-linecap="round" stroke-linejoin="round" opacity="0.9">
    <circle cx="400" cy="470" r="220" />
    <circle cx="400" cy="470" r="170" />
    <circle cx="400" cy="470" r="120" />
    <circle cx="400" cy="470" r="60" />
  </g>

  <g stroke="#0b0f12" stroke-width="3" stroke-linecap="round" stroke-linejoin="round" opacity="0.7">
    <rect x="130" y="720" width="540" height="32" rx="10" />
    <rect x="190" y="770" width="420" height="18" rx="9" />
    <rect x="250" y="808" width="300" height="12" rx="6" />
  </g>

  <g stroke="#0b0f12" stroke-width="4" stroke-linecap="round" stroke-linejoin="round" opacity="0.8">
    <path d="M120 210 H320 C360 210 380 230 380 270 V360" />
    <path d="M680 290 H520 C480 290 460 310 460 350 V420" />
    <path d="M140 560 H320 C360 560 380 580 380 620 V690" />
  </g>

  <g stroke="#0b0f12" stroke-width="1" stroke-linecap="round" stroke-linejoin="round" opacity="0.35">
    <line x1="90" y1="130" x2="710" y2="130" />
    <line x1="90" y1="860" x2="710" y2="860" />
    <line x1="140" y1="170" x2="140" y2="820" />
    <line x1="660" y1="170" x2="660" y2="820" />
    <line x1="220" y1="200" x2="580" y2="840" />
    <line x1="580" y1="200" x2="220" y2="840" />
  </g>

  <g fill="#0b0f12" opacity="0.6">
    <circle cx="260" cy="300" r="5" />
    <circle cx="540" cy="330" r="5" />
    <circle cx="300" cy="650" r="4" />
    <circle cx="500" cy="650" r="4" />
  </g>

  <g stroke="#0b0f12" stroke-width="1.5" opacity="0.45">
    <rect x="210" y="420" width="380" height="90" rx="12" />
    <rect x="240" y="445" width="320" height="40" rx="8" />
  </g>
</svg>
